<?xml version="1.0" encoding="UTF-8" standalone="no"?>
<svg
   viewBox="0 0 399.99999 103.46612"
   version="1.1"
   id="svg72"
   sodipodi:docname="universidad_nacional_politecnica.svg"
   width="400"
   height="103.46612"
   inkscape:version="1.1.2 (0a00cf5339, 2022-02-04)"
   xmlns:inkscape="http://www.inkscape.org/namespaces/inkscape"
   xmlns:sodipodi="http://sodipodi.sourceforge.net/DTD/sodipodi-0.dtd"
   xmlns="http://www.w3.org/2000/svg"
   xmlns:svg="http://www.w3.org/2000/svg">
  <sodipodi:namedview
     id="namedview74"
     pagecolor="#ffffff"
     bordercolor="#666666"
     borderopacity="1.0"
     inkscape:pageshadow="2"
     inkscape:pageopacity="0.0"
     inkscape:pagecheckerboard="0"
     showgrid="false"
     inkscape:zoom="1.0107362"
     inkscape:cx="334.4097"
     inkscape:cy="17.8088"
     inkscape:window-width="1920"
     inkscape:window-height="1011"
     inkscape:window-x="0"
     inkscape:window-y="0"
     inkscape:window-maximized="1"
     inkscape:current-layer="svg72" />
  <defs
     id="defs4">
    <style
       id="style2">.cls-1,.cls-2{fill:#fff;}.cls-2{fill-rule:evenodd;}</style>
  </defs>
  <g
     id="g1016"
     style="fill:#000000"
     transform="matrix(0.59893559,0,0,0.59893559,8.6491804e-4,0)">
    <path
       class="cls-1"
       d="M 394,29.63 V 1.81 h 4.87 v 27.82 q 0,4.44 1.58,6.49 c 1.05,1.36 2.76,2.05 5.13,2.05 2.37,0 4.28,-0.74 5.32,-2.22 q 1.44,-1.94 1.44,-6.32 V 1.81 h 4.88 v 27.82 q 0,5.82 -2.89,9.09 -3,3.44 -8.75,3.44 Q 394,42.16 394,29.63 Z"
       id="path6"
       style="fill:#000000" />
    <path
       class="cls-1"
       d="M 423.21,41.38 V 1.81 h 6.35 l 13.16,33 v -33 h 4.88 v 39.57 h -6.75 l -12.76,-32 v 32 z"
       id="path8"
       style="fill:#000000" />
    <path
       class="cls-1"
       d="M 454,41.38 V 1.81 h 4.88 v 39.57 z"
       id="path10"
       style="fill:#000000" />
    <path
       class="cls-1"
       d="M 471.65,41.38 462,1.81 h 5.1 l 7.76,34 H 475 l 7.76,-34 h 5.1 l -10,39.57 z"
       id="path12"
       style="fill:#000000" />
    <path
       class="cls-1"
       d="M 490.93,41.38 V 1.81 h 20.45 v 4.32 h -15.57 v 12.42 h 14.69 v 4.32 h -14.69 v 14.19 h 16.24 v 4.32 z"
       id="path14"
       style="fill:#000000" />
    <path
       class="cls-1"
       d="M 516.59,41.38 V 1.81 h 12.81 a 10.24,10.24 0 0 1 7.42,2.63 9.7,9.7 0 0 1 2.72,7.29 q 0,8.47 -6.1,10 v 0.11 a 5.71,5.71 0 0 1 4,2.13 7.45,7.45 0 0 1 1.56,4.44 l 0.33,6.76 q 0.23,5.05 2.11,6.21 h -5.84 q -1.05,-1.05 -1.33,-5.71 l -0.33,-6.15 q -0.23,-3.6 -2.11,-4.93 a 6.82,6.82 0 0 0 -3.77,-0.83 h -6.59 V 41.38 Z M 521.47,5.8 v 14 h 4.82 a 11,11 0 0 0 5.16,-0.94 c 2,-1.15 3,-3.38 3,-6.71 A 5.9,5.9 0 0 0 532.56,7.52 7.62,7.62 0 0 0 527.3,5.83 Z"
       id="path16"
       style="fill:#000000" />
    <path
       class="cls-1"
       d="m 567,12.06 h -4.87 q 0,-7 -6.15,-7 -6.54,0 -6.54,6.42 c 0,3 1.6,5.25 4.82,6.66 q 4.49,1.71 9,3.43 4.83,2.78 4.82,8.87 0,6.25 -4,9.31 a 13.43,13.43 0 0 1 -8.26,2.44 q -6.65,0 -9.48,-3.44 -2.49,-3 -2.49,-9.75 h 4.88 c 0,2.92 0.35,5 1,6.26 q 1.61,2.94 6.37,2.94 a 6.73,6.73 0 0 0 4.91,-1.94 6.8,6.8 0 0 0 2,-5 c 0,-3 -1.6,-5.28 -4.82,-6.76 q -4.49,-1.71 -9,-3.49 -4.81,-2.82 -4.82,-9 a 11.1,11.1 0 0 1 2,-6.81 Q 549.35,1 555.94,1 566.86,1 567,12.06 Z"
       id="path18"
       style="fill:#000000" />
    <path
       class="cls-1"
       d="M 573.07,41.38 V 1.81 h 4.87 v 39.57 z"
       id="path20"
       style="fill:#000000" />
    <path
       class="cls-1"
       d="M 584.87,41.38 V 1.81 h 10.59 q 8.41,0 11.52,5.82 2.32,4.28 2.33,14 0,19.78 -13.36,19.78 z M 589.75,5.8 v 31.59 h 5.1 a 7.92,7.92 0 0 0 7.87,-5.21 q 1.49,-3.6 1.49,-10.53 0,-7.48 -1.33,-10.8 -2.1,-5.05 -8,-5 z"
       id="path22"
       style="fill:#000000" />
    <path
       class="cls-1"
       d="M 611.53,41.38 622.94,1.81 h 6.54 l 10.64,39.57 H 635 l -2.8,-10.86 h -12.64 l -2.93,10.86 z m 14.52,-34 -5.49,19.12 h 10.64 l -5,-19.12 z"
       id="path24"
       style="fill:#000000" />
    <path
       class="cls-1"
       d="M 643.39,41.38 V 1.81 H 654 q 8.41,0 11.53,5.82 2.32,4.28 2.32,14 0,19.78 -13.35,19.78 z M 648.27,5.8 v 31.59 h 5.1 a 7.91,7.91 0 0 0 7.87,-5.21 q 1.5,-3.6 1.49,-10.53 0,-7.48 -1.33,-10.8 -2.1,-5.05 -8,-5 z"
       id="path26"
       style="fill:#000000" />
    <path
       class="cls-1"
       d="M 394.45,104.78 V 65.21 h 6.35 l 13.16,33 v -33 h 4.87 v 39.57 h -6.74 l -12.76,-32 v 32 z"
       id="path28"
       style="fill:#000000" />
    <path
       class="cls-1"
       d="M 421.6,104.78 433,65.21 h 6.54 l 10.64,39.57 h -5.1 l -2.82,-10.86 h -12.62 l -2.94,10.86 z m 14.52,-34 -5.48,19.12 h 10.64 l -5,-19.12 z"
       id="path30"
       style="fill:#000000" />
    <path
       class="cls-1"
       d="m 472.09,91.2 h 5.1 q -0.82,14.35 -12,14.36 -7.59,0 -10.58,-6.54 -2.16,-4.71 -2.16,-14 0,-9.15 2.27,-14 3,-6.54 10.47,-6.54 11.37,0 11.7,12.3 h -5.1 q -0.22,-8.31 -6.6,-8.31 -4.65,0 -6.37,4.87 -1.28,3.6 -1.27,11.7 0.01,8.1 1.27,11.69 1.72,4.88 6.37,4.88 a 5.82,5.82 0 0 0 5.66,-3.38 18.52,18.52 0 0 0 1.24,-7.03 z"
       id="path32"
       style="fill:#000000" />
    <path
       class="cls-1"
       d="M 481.73,104.78 V 65.21 h 4.88 v 39.57 z"
       id="path34"
       style="fill:#000000" />
    <path
       class="cls-1"
       d="m 505.23,64.44 q 7.42,0 10.48,6.54 2.29,4.88 2.29,14.02 0,9.14 -2.27,14 -3.06,6.54 -10.48,6.54 -7.42,0 -10.49,-6.54 -2.28,-4.87 -2.27,-14 0.01,-9.13 2.27,-14 3.05,-6.56 10.47,-6.56 z m 0,4 c -3.1,0 -5.23,1.62 -6.37,4.87 q -1.28,3.6 -1.28,11.7 0,8.1 1.28,11.69 c 1.14,3.25 3.27,4.88 6.37,4.88 3.1,0 5.23,-1.63 6.38,-4.88 q 1.27,-3.6 1.27,-11.69 0,-8.09 -1.27,-11.7 c -1.15,-3.26 -3.27,-4.88 -6.38,-4.88 z"
       id="path36"
       style="fill:#000000" />
    <path
       class="cls-1"
       d="M 523.85,104.78 V 65.21 h 6.36 l 13.15,33 v -33 h 4.88 v 39.57 h -6.75 l -12.76,-32 v 32 z"
       id="path38"
       style="fill:#000000" />
    <path
       class="cls-1"
       d="M 551,104.78 562.42,65.21 H 569 l 10.64,39.57 h -5.1 l -2.83,-10.86 h -12.66 l -2.94,10.86 z m 14.52,-34 -5.52,19.15 h 10.64 l -5,-19.12 z"
       id="path40"
       style="fill:#000000" />
    <path
       class="cls-1"
       d="M 582.38,104.78 V 65.21 h 4.87 v 35.25 h 16.08 v 4.32 z"
       id="path42"
       style="fill:#000000" />
    <path
       class="cls-1"
       d="m 394.45,168.18 v -39.57 h 10.08 a 15.78,15.78 0 0 1 7.43,1.44 q 4.83,2.61 4.82,9.92 0,5.43 -3.13,8.46 a 11.45,11.45 0 0 1 -8.28,3 h -6 v 16.73 z m 4.88,-35.58 v 14.85 h 5.81 a 6.17,6.17 0 0 0 4.69,-2 8.1,8.1 0 0 0 1.85,-5.74 q 0,-7.14 -6.87,-7.15 z"
       id="path44"
       style="fill:#000000" />
    <path
       class="cls-1"
       d="m 433.3,127.84 q 7.43,0 10.47,6.54 2.28,4.88 2.27,14 -0.01,9.12 -2.27,14 -3,6.54 -10.47,6.54 -7.47,0 -10.48,-6.54 -2.26,-4.87 -2.27,-14 -0.01,-9.13 2.27,-14 3.05,-6.54 10.48,-6.54 z m 0,4 c -3.11,0 -5.23,1.62 -6.38,4.87 -0.85,2.41 -1.27,6.3 -1.27,11.7 0,5.4 0.42,9.29 1.27,11.69 1.15,3.25 3.27,4.88 6.38,4.88 3.11,0 5.22,-1.63 6.37,-4.88 q 1.27,-3.6 1.27,-11.69 c 0,-5.4 -0.42,-9.29 -1.27,-11.7 q -1.73,-4.89 -6.37,-4.88 z"
       id="path46"
       style="fill:#000000" />
    <path
       class="cls-1"
       d="m 451.92,168.18 v -39.57 h 4.88 v 35.25 h 16.07 v 4.32 z"
       id="path48"
       style="fill:#000000" />
    <path
       class="cls-1"
       d="m 476.52,168.18 v -39.57 h 4.88 v 39.57 z"
       id="path50"
       style="fill:#000000" />
    <path
       class="cls-1"
       d="m 499.86,132.94 v 35.24 H 495 v -35.24 h -9.92 v -4.33 h 24.77 v 4.33 z"
       id="path52"
       style="fill:#000000" />
    <path
       class="cls-1"
       d="m 513.49,168.18 v -39.57 h 20.45 v 4.33 h -15.57 v 12.41 h 14.68 v 4.32 h -14.68 v 14.19 h 16.23 v 4.32 z m 7.51,-41.73 3.87,-7.87 h 5.44 l -6,7.87 z"
       id="path54"
       style="fill:#000000" />
    <path
       class="cls-1"
       d="m 558.27,154.6 h 5.1 q -0.84,14.35 -12,14.36 -7.59,0 -10.59,-6.54 -2.16,-4.71 -2.16,-14 0,-9.15 2.28,-14 3,-6.54 10.47,-6.54 11.35,0 11.69,12.3 h -5.09 q -0.23,-8.31 -6.6,-8.31 c -3.1,0 -5.23,1.62 -6.37,4.87 -0.85,2.41 -1.28,6.3 -1.28,11.7 0,5.4 0.43,9.29 1.28,11.69 1.14,3.25 3.27,4.88 6.37,4.88 a 5.81,5.81 0 0 0 5.65,-3.38 18.45,18.45 0 0 0 1.25,-7.03 z"
       id="path56"
       style="fill:#000000" />
    <path
       class="cls-1"
       d="m 567.91,168.18 v -39.57 h 6.35 l 13.16,33 v -33 h 4.88 v 39.57 h -6.75 l -12.76,-32 v 32 z"
       id="path58"
       style="fill:#000000" />
    <path
       class="cls-1"
       d="m 598.72,168.18 v -39.57 h 4.88 v 39.57 z"
       id="path60"
       style="fill:#000000" />
    <path
       class="cls-1"
       d="m 629.15,154.6 h 5.1 q -0.84,14.35 -12,14.36 -7.59,0 -10.58,-6.54 -2.16,-4.71 -2.16,-14 0,-9.15 2.27,-14 3,-6.54 10.47,-6.54 11.37,0 11.7,12.3 h -5.1 q -0.23,-8.31 -6.6,-8.31 c -3.1,0 -5.23,1.62 -6.37,4.87 -0.85,2.41 -1.28,6.3 -1.28,11.7 0,5.4 0.43,9.29 1.28,11.69 1.14,3.25 3.27,4.88 6.37,4.88 a 5.8,5.8 0 0 0 5.65,-3.38 18.45,18.45 0 0 0 1.25,-7.03 z"
       id="path62"
       style="fill:#000000" />
    <path
       class="cls-1"
       d="m 635.13,168.18 11.42,-39.57 h 6.54 l 10.64,39.57 h -5.1 l -2.82,-10.86 h -12.64 l -2.94,10.86 z m 14.52,-34 -5.48,19.12 h 10.64 l -5,-19.12 z"
       id="path64"
       style="fill:#000000" />
  </g>
  <path
     class="cls-1"
     d="m 163.05509,55.898659 24.85582,-12.577648 2.49756,-26.02974 -24.86181,13.056795 z m -3.73736,-0.137755 v 0 0.09583 l -0.0898,-0.0539 v 0 l -0.03,-0.07786 2.47959,-26.191453 -20.85493,-12.799254 -2.46762,25.191231 20.79505,13.913274 v 0.161713 z m 8.67259,-43.572565 0.96428,-11.28394626 h 8.9481 L 199.63208,16.135325 195.94863,50.873589 171.21259,63.60696 h -8.90018 l 0.64086,-7.600493 -3.66549,-0.07187 -4.45009,45.584983 h -29.29993 l 0.0479,-0.46717 L 104.4612,40.727622 98.52575,101.51359 H 67.908182 l 1.575201,-16.171256 v 0 a 6.3786641,6.3786641 0 0 0 6.210962,-5.683898 5.0430377,5.0430377 0 0 0 -5.102931,-5.653952 6.3786641,6.3786641 0 0 0 -6.204973,5.653952 5.0250696,5.0250696 0 0 0 4.629772,5.629994 29.94678,29.94678 0 0 1 -6.282834,9.163715 C 56.5883,100.4415 45.885321,103.46612 33.679013,103.46612 8.0565486,103.46612 -2.1313458,93.038657 0.36621562,67.410203 L 6.8586775,0.95829695 H 35.517745 L 28.013082,72.782653 c -0.401286,3.845167 -0.37134,6.468505 -0.06588,7.881993 0.598935,2.809007 4.545921,4.228485 7.546588,4.228485 3.000667,0 5.043038,-1.419478 6.187005,-4.228485 0.598935,-1.413488 1.102041,-4.036826 1.473381,-7.881993 L 50.16771,0.95829695 h 61.69036 L 129.96988,56.34786 135.3603,0.90439274 h 29.28796 L 163.51028,12.439892 a 12.218286,12.218286 0 0 0 -8.60072,8.666598 l 10.06811,5.845612 11.0264,-6.450537 a 9.4212569,9.4212569 0 0 0 -7.99579,-8.313226 z"
     id="path66"
     style="fill:#001c7d;fill-opacity:1;stroke-width:0.598936" />
  <polygon
     class="cls-2"
     points="365.03,169.19 344.42,169.37 365.03,0 "
     id="polygon68"
     style="fill:#c0080f;fill-opacity:1"
     transform="matrix(0.59893559,0,0,0.59893559,8.6491804e-4,0)" />
</svg>
